<svg xmlns="http://www.w3.org/2000/svg" width="414" height="140" viewBox="0 0 414 140"><defs><style>.a{fill:#fff;}.b{fill:#efefef;}.c,.i{fill:rgba(0,0,0,0.6);}.c,.g{font-size:14px;}.c,.g,.i{font-family:SegoeUI-Light, Segoe UI;font-weight:300;}.c{letter-spacing:0.15em;}.d{fill:rgba(50,160,95,0.12);}.e{fill:rgba(255,255,255,0);}.f{fill:#32a05f;font-family:SegoeUI, Segoe UI;letter-spacing:0.1em;}.f,.i{font-size:10px;}.g,.h{fill:rgba(0,0,0,0.87);}.g,.h,.i{letter-spacing:0.05em;}.h{font-size:16px;font-family:SegoeUI-Semibold, Segoe UI;font-weight:600;}</style></defs><g transform="translate(0 0.634)"><rect class="a" width="414" height="139" transform="translate(0 -0.634)"/><rect class="b" width="414" height="1" transform="translate(0 138.366)"/></g><g transform="translate(0 -19.366)"><text class="c" transform="translate(326 132.366)"><tspan x="0" y="0">+2</tspan></text><g transform="translate(268 118.366)"><rect class="d" width="50" height="20" rx="4"/><rect class="e" width="50" height="20" rx="4"/><text class="f" transform="translate(6 14)"><tspan x="0" y="0">#MENU</tspan></text></g><g transform="translate(201 118.366)"><rect class="d" width="59" height="20" rx="4"/><rect class="e" width="59" height="20" rx="4"/><text class="f" transform="translate(6 14)"><tspan x="0" y="0">#DESIGN</tspan></text></g><g transform="translate(108 118.366)"><rect class="d" width="85" height="20" rx="4"/><rect class="e" width="85" height="20" rx="4"/><text class="f" transform="translate(6 14)"><tspan x="0" y="0">#FOODTRUCK</tspan></text></g><g transform="translate(30 118.366)"><rect class="d" width="70" height="20" rx="4"/><rect class="e" width="70" height="20" rx="4"/><text class="f" transform="translate(6 14)"><tspan x="0" y="0">#TAGNAME</tspan></text></g></g><text class="g" transform="translate(30 69)"><tspan x="0" y="15">Let’s collect inspiration for our truck and menu </tspan></text><text class="h" transform="translate(30 37)"><tspan x="0" y="17">Note Title Example</tspan></text><text class="i" transform="translate(30 30)"><tspan x="0" y="0">MAY 5</tspan></text></svg>